/* XPM */
static char *passwordmakerdlg[] = {
/* columns rows colors chars-per-pixel */
"32 32 257 2",
"   c black",
".  c #291C00",
"X  c #4A2800",
"o  c #422C00",
"O  c #4A3000",
"+  c #523400",
"@  c #523800",
"#  c #5A3C08",
"$  c #633800",
"%  c #633C08",
"&  c #674304",
"*  c #6B4D18",
"=  c #7B4D00",
"-  c #7B5108",
";  c #7B5510",
":  c #6B5521",
">  c #7B4D21",
",  c #735529",
"<  c #736139",
"1  c #73715A",
"2  c #842400",
"3  c #AD2410",
"4  c #B53418",
"5  c #844D08",
"6  c #845108",
"7  c #8C5118",
"8  c #9C5D18",
"9  c #945929",
"0  c #996902",
"q  c #9C6110",
"w  c #846531",
"e  c #A55D29",
"r  c #AD7D18",
"t  c #B57702",
"y  c #B57D18",
"u  c #A56508",
"i  c #A56129",
"p  c #A56131",
"a  c #BD7939",
"s  c #B57529",
"d  c #846D42",
"f  c #84794A",
"g  c #C61800",
"h  c #D62000",
"j  c #D63000",
"k  c #D63C18",
"l  c #EF2000",
"z  c #DE5D10",
"x  c #C67D10",
"c  c #C67908",
"v  c #C67929",
"b  c #F74500",
"n  c #F75500",
"m  c #FF5D00",
"M  c #EF6500",
"N  c #F77100",
"B  c #E77508",
"V  c #C67A42",
"C  c #CE7B42",
"Z  c #AD8200",
"A  c #AD8218",
"S  c #BD8208",
"D  c #BD8610",
"F  c #BD9239",
"G  c #BDAA31",
"H  c #8C8C7B",
"J  c #9C9663",
"K  c #9C9A7B",
"L  c #B59E4A",
"P  c #BDA66B",
"I  c #CE8610",
"U  c #CE9218",
"Y  c #DE8A00",
"T  c #D69200",
"R  c #DE9600",
"E  c #DE9608",
"W  c #D69A10",
"Q  c #D69A18",
"!  c #DE9E18",
"~  c #C68231",
"^  c #CE9221",
"/  c #DE9E21",
"(  c #DEA608",
")  c #DEAA39",
"_  c #E79610",
"`  c #E79A10",
"'  c #E79E18",
"]  c #F78600",
"[  c #F78E08",
"{  c #E79E21",
"}  c #FF8A39",
"|  c #E7A200",
" . c #E7AA00",
".. c #E7A218",
"X. c #EFA210",
"o. c #FFAA08",
"O. c #FFAA10",
"+. c #F7B608",
"@. c #FFBC00",
"#. c #F7B210",
"$. c #FFB610",
"%. c #FFBB10",
"&. c #FFBC18",
"*. c #EFAE21",
"=. c #E9A723",
"-. c #E7AA31",
";. c #EFB621",
":. c #EFB231",
">. c #FFA629",
",. c #F7A231",
"<. c #F7AA39",
"1. c #F7B221",
"2. c #F7BA21",
"3. c #F7BA29",
"4. c #FFBA21",
"5. c #FFBC29",
"6. c #FFB631",
"7. c #FBB639",
"8. c #CE8442",
"9. c #CA8642",
"0. c #C69A42",
"q. c #DE8C4A",
"w. c #D68646",
"e. c #DE9E4A",
"r. c #DEAA42",
"t. c #C6AE63",
"y. c #C6B273",
"u. c #E78C4A",
"i. c #EF964A",
"p. c #E7964A",
"a. c #FF825A",
"s. c #F79E4A",
"d. c #F79E52",
"f. c #EBA646",
"g. c #EFA252",
"h. c #EFBE5A",
"j. c #F7A642",
"k. c #F7AC4A",
"l. c #F7A652",
"z. c #F7A65A",
"x. c #F7AA5A",
"c. c #FFBA42",
"v. c #FFBE52",
"b. c #FFBE5A",
"n. c #F7B252",
"m. c #E7BA63",
"M. c #FFA66B",
"N. c #FFC300",
"B. c #FFC708",
"V. c #FFCB00",
"C. c #FFCB08",
"Z. c #FFC310",
"A. c #FFC518",
"S. c #FFCB10",
"D. c #FFCD18",
"F. c #FFD708",
"G. c #FFD710",
"H. c #FFD318",
"J. c #FFDF10",
"K. c #FFDC18",
"L. c #FFC529",
"P. c #FFC731",
"I. c #FFCF31",
"U. c #FFCD39",
"Y. c #F7CB39",
"T. c #FFD521",
"R. c #FFDF21",
"E. c #FFD329",
"W. c #FFD731",
"Q. c #FFDD31",
"!. c #FFE710",
"~. c #FFE518",
"^. c #FFEC10",
"/. c #FFEF18",
"(. c #FFF310",
"). c #FFE521",
"_. c #FFE729",
"`. c #FFED29",
"'. c #FFEB21",
"]. c #FFE731",
"[. c #FFE739",
"{. c #FFEC31",
"}. c #FFED39",
"|. c #FFCB42",
" X c #FFCF52",
".X c #FFCF5A",
"XX c #FFC352",
"oX c #FFD742",
"OX c #FFD54A",
"+X c #FFDF4A",
"@X c #FFD75A",
"#X c #FFDF52",
"$X c #FFCF6B",
"%X c #FFC363",
"&X c #FFD76B",
"*X c #FFDF63",
"=X c #FFDF6B",
"-X c #FFD363",
";X c #FFD373",
":X c #FFED42",
">X c #FFEF4A",
",X c #FFE752",
"<X c #FFEF52",
"1X c #FFF346",
"2X c #FFF552",
"3X c #FFF35A",
"4X c #FFEF6B",
"5X c #FFE773",
"6X c #FFEE73",
"7X c #FFE37B",
"8X c #FFF363",
"9X c #FFF36B",
"0X c #FFF373",
"qX c #FFF57B",
"wX c #FFFB73",
"eX c #BAB789",
"rX c #BDBEAD",
"tX c #FF9E84",
"yX c #CEC384",
"uX c #C6C39C",
"iX c #DECF8C",
"pX c #CEC7AD",
"aX c #DAD7A5",
"sX c #C6C7B5",
"dX c #E7DB8C",
"fX c #EFDF94",
"gX c #FFC38C",
"hX c #E7DBAD",
"jX c #E7DFBD",
"kX c #EFDFB5",
"lX c #FFE78C",
"zX c #FFE79C",
"xX c #FFED94",
"cX c #F7E79C",
"vX c #FFF584",
"bX c #FFF58C",
"nX c #FFFB8C",
"mX c #FFF794",
"MX c #FFF59C",
"NX c #FFFB98",
"BX c #EFE5B5",
"VX c #FFEFA5",
"CX c #F7EBA5",
"ZX c #F7EFBD",
"AX c #FFF7A5",
"SX c #FFF7B5",
"DX c #FFF5BD",
"FX c #FFFBB5",
"GX c #FFFBBD",
"HX c #FFF5C6",
"JX c #FFFBCE",
"KX c #FFFBC6",
"LX c #FFF7D6",
"PX c #FFFFD6",
"IX c #FFFFDE",
"UX c #FFFFE7",
"YX c None",
/* pixels */
"YXYXYXYXYXYXYXYXYXYXYXYXYXYXYXYXYXYXYXYXYXYXYXYXYXYXYXYXYXYXYXYX",
"YXYXYXYXYXYXYXYXYXYXYXYXYXYXYXYXYXYXYXYXYXYXYXYXYXYXYXYXYXYXYXYX",
"YXYXYXYXYXYXYXYXYXYXYXYXYXYXYXYXYXYXYXYXYXYXYXYXYXYXYXYXYXYXYXYX",
"YXYXYXYXYXYXYXYXYXYXYXYXYXYXYXYXYXYXYXYXYXYXYXYXYXYXYXYXYXYXYXYX",
"YXYXYXYXYXYXYXYXYXYXYXYXYXYXYXYXYXYXYXYXYXYXYXYXYXYXYXYXYXYXYXYX",
"YXYXYXYXYXYXYXFXuXLXFXzX7X5X6X6X0X0X0X5XxXSXUXsXFXYXYXYXYXYXYXYX",
"YXYXYXYXYXuXHXcXh.=.,.<.6.D.K.^./.^.~.G.D.&.:.m.fXHXrXYXYXYXYXYX",
"YXYXYXYXeXCX0.y c _ <.k.j.7.T.^.(.^.~.J.D.D.' v s F dXeXYXYXYXYX",
"YXYXYXaXt.; 5 q I =.n.b.l.%X$X-X+X,XQ.R.).K.3.~ e 7 - L LXH YXYX",
"YXYXyXdX# $ > i e.f.g.d.l.x.x.x.z.z.s.k.7.5.-.8.a 8 = & y.BXYXYX",
"YXYXDXd X % p V V 8.u.i.p.q.w.8.C C q.q.s.u.w.V 9.x u & , hXeXYX",
"YXG DX< + 6 9 YXYXYXYXYXYXYXYXYXYXYXYXYXYXYXYXYXYXYX6 & : HXMXYX",
"YXX.mXP O & YXYXYXYXYXYXYXYXYXYXYXYXYXYXYXYXYXYXYXYX+ o 1 ZXY.YX",
"YXN c.cXw @ YXYXYXYXYXYXYXYXYXYXYXYXYXYXYXYXYXYXYXYX. * hXlX+.YX",
"YXn b r.AXJ YXYXYXYXYXYXYXYXYXYXYXYXYXYXYXYXYXYXYXYX1 BXlX5.[ YX",
"YXM h 2 ) bXaXK YXYXYXYXYXYXYXYXYXYXYXYXYXYXYXYXH pXHXxXU.%.] YX",
"YXY j 3 4 z XXMXJXIXFXFXFXYXYXYXYXYXYXYXYXFXFXUXHXzXOXI.%.o.R YX",
"YXt B k g l m A.,XqXFXPXFXFXFXFXFXFXFXFXFXUXFXvX|.&.I.oXOXL.Z YX",
"YXYXW f.tXa.} O.%.&.H.~.:X8XMXKXPXFXmX9X1X`.).].$.U.*X=XW.( YXYX",
"YXYX0 *..XM.gX;X X4.K.{.{.{.qXAXvX1X2X:X{.'.}.). X&X@XD. .YXYXYX",
"YXYXYX0 3.I.5.>.v.P.4X9X2X}.nXGX3X}.8XwX`.}.:X9X@XD.V.| YXYXYXYX",
"YXYXYXYX0 ! @.@.B.E.6XvXqX0XNXNXnXvXqX3X_.9X>X<XF.@.T YXYXYXYXYX",
"YXYXYXYXYXYXt E +.C.R.:X).~.{.}._.`.`.~.~.[.Q.&.E t YXYXYXYXYXYX",
"YXYXYXYXYXYXYXYXS ` 1.%.S.S.D.D.H.D.D.Z.L.3.' D YXYXYXYXYXYXYXYX",
"YXYXYXYXYXYXYXYXYXYXYXr U Q { ..=./ Q ^ A YXYXYXYXYXYXYXYXYXYXYX",
"YXYXYXYXYXYXYXYXYXYXYXYXYXYXYXYXYXYXYXYXYXYXYXYXYXYXYXYXYXYXYXYX",
"YXYXYXYXYXYXYXYXYXYXYXYXYXYXYXYXYXYXYXYXYXYXYXYXYXYXYXYXYXYXYXYX",
"YXYXYXYXYXYXYXYXYXYXYXYXYXYXYXYXYXYXYXYXYXYXYXYXYXYXYXYXYXYXYXYX",
"YXYXYXYXYXYXYXYXYXYXYXYXYXYXYXYXYXYXYXYXYXYXYXYXYXYXYXYXYXYXYXYX",
"YXYXYXYXYXYXYXYXYXYXYXYXYXYXYXYXYXYXYXYXYXYXYXYXYXYXYXYXYXYXYXYX",
"YXYXYXYXYXYXYXYXYXYXYXYXYXYXYXYXYXYXYXYXYXYXYXYXYXYXYXYXYXYXYXYX",
"YXYXYXYXYXYXYXYXYXYXYXYXYXYXYXYXYXYXYXYXYXYXYXYXYXYXYXYXYXYXYXYX"
};
